# xmcd CD database file
#
# Track frame offsets:
#	150
#	13465
#	33734
#	51547
#	71565
#	87555
#	102013
#	117548
#	134002
#	148661
#	163328
#	178389
#
# Disc length: 2533 seconds
#
# Revision: 0
# Processed by: cddbd v1.5.2PL0 Copyright (c) Steve Scherf et al.
# Submitted via: CDex 1.51
#
DISCID=c609e30c
DTITLE=Asleep at the Wheel and Leon Rausch - It's a Good Day
DYEAR=2010
DGENRE=Country
TTITLE0=It's a Good Day
TTITLE1=Truck Driver's Blues 
TTITLE2=Alright, Okay, You Win
TTITLE3=Rosetta
TTITLE4=Basin Street Blues 
TTITLE5=I Didn't Realize
TTITLE6=Mean Woman With the Green Eyes
TTITLE7=Sugar Moon
TTITLE8=Cotton Patch Blues
TTITLE9=Snap Your Fingers
TTITLE10=Get Your Kicks (on Route 66) 
TTITLE11=Asleep at the Wheel and Leon Rausch - Osage Stomp 
EXTD=YEAR: 2010
EXTT0=
EXTT1=
EXTT2=
EXTT3=
EXTT4=
EXTT5=
EXTT6=
EXTT7=
EXTT8=
EXTT9=
EXTT10=
EXTT11=
PLAYORDER=
